<?xml version="1.0" encoding="UTF-8" standalone="no"?>
<!-- Created by Syntax-Trax http://kevinpt.github.io/syntax-trax -->
<svg xmlns="http://www.w3.org/2000/svg"
xmlns:xlink="http://www.w3.org/1999/xlink"
xml:space="preserve"
width="151" height="120" version="1.1">
<style type="text/css">
<![CDATA[
.box_font {fill:#000000; text-anchor:middle;
    font-family:Times; font-size:14pt; font-weight:normal; font-style:italic;}
.bubble_font {fill:#000000; text-anchor:middle;
    font-family:Helvetica; font-size:14pt; font-weight:bold; font-style:normal;}
.title_font {fill:#000000; text-anchor:middle;
    font-family:Helvetica; font-size:22pt; font-weight:bold; font-style:normal;}
.token_font {fill:#000000; text-anchor:middle;
    font-family:Helvetica; font-size:16pt; font-weight:bold; font-style:normal;}
.label {fill:#000;
  text-anchor:middle;
  font-size:16pt; font-weight:bold; font-family:Sans;}
.link {fill: #0D47A1;}
.link:hover {fill: #0D47A1; text-decoration:underline;}
.link:visited {fill: #4A148C;}
]]>
</style>
<defs>
  <marker id="arrow" markerWidth="5" markerHeight="4" refX="2.5" refY="2" orient="auto" markerUnits="strokeWidth">
    <path d="M0,0 L0.5,2 L0,4 L4.5,2 z" fill="#000000" />
  </marker>
</defs>
<path d="M77.0,41.0 A16.0,16.0 0 0,1 77.0,9.0 H80.0 A16.0,16.0 0 0,1 80.0,41.0 z" stroke="none" fill-opacity="0.498039215686" fill="#000000"/>
<path d="M77.0,79.0 A16.0,16.0 0 0,1 77.0,47.0 H80.0 A16.0,16.0 0 0,1 80.0,79.0 z" stroke="none" fill-opacity="0.498039215686" fill="#000000"/>
<path d="M77.0,117.0 A16.0,16.0 0 0,1 77.0,85.0 H80.0 A16.0,16.0 0 0,1 80.0,117.0 z" stroke="none" fill-opacity="0.498039215686" fill="#000000"/>
<circle cx="9" cy="21.0" r="3" stroke="#000000" stroke-width="2" fill="#FFFFFF"/>
<path d="M74.0,38.0 A16.0,16.0 0 0,1 74.0,6.0 H77.0 A16.0,16.0 0 0,1 77.0,38.0 z" stroke="#000000" stroke-width="2" fill="#B3E5FC"/>
<text class="bubble_font" x="75.5" y="29.0">A</text>
<path d="M74.0,76.0 A16.0,16.0 0 0,1 74.0,44.0 H77.0 A16.0,16.0 0 0,1 77.0,76.0 z" stroke="#000000" stroke-width="2" fill="#B3E5FC"/>
<text class="bubble_font" x="75.5" y="67.0">B</text>
<path d="M74.0,114.0 A16.0,16.0 0 0,1 74.0,82.0 H77.0 A16.0,16.0 0 0,1 77.0,114.0 z" stroke="#000000" stroke-width="2" fill="#B3E5FC"/>
<text class="bubble_font" x="75.5" y="105.0">C</text>
<line x1="29" y1="21.0" x2="53.0" y2="21.0" stroke="#000000" stroke-width="2" marker-end="url(#arrow)" />
<line x1="94.0" y1="21.0" x2="123.0" y2="21.0" stroke="#000000" stroke-width="2" />
<path d="M38.0,30.0 A9,9 0 0,0 29.0,21.0" stroke="#000000" stroke-width="2" fill="none"/>
<line x1="47" y1="59.0" x2="53.0" y2="59.0" stroke="#000000" stroke-width="2" marker-end="url(#arrow)" />
<line x1="94.0" y1="59.0" x2="100.0" y2="59.0" stroke="#000000" stroke-width="2" marker-end="url(#arrow)" />
<path d="M38.0,50.0 A9,9 0 0,0 47.0,59.0" stroke="#000000" stroke-width="2" fill="none"/>
<path d="M104.0,59.0 A9.0,9.0 0 0,0 113.0,50.0" stroke="#000000" stroke-width="2" fill="none"/>
<line x1="47" y1="97.0" x2="53.0" y2="97.0" stroke="#000000" stroke-width="2" marker-end="url(#arrow)" />
<line x1="94.0" y1="97.0" x2="100.0" y2="97.0" stroke="#000000" stroke-width="2" marker-end="url(#arrow)" />
<path d="M38.0,88.0 A9,9 0 0,0 47.0,97.0" stroke="#000000" stroke-width="2" fill="none"/>
<path d="M104.0,97.0 A9.0,9.0 0 0,0 113.0,88.0" stroke="#000000" stroke-width="2" fill="none"/>
<path d="M122.0,21.0 A9.0,9.0 0 0,0 113.0,30.0" stroke="#000000" stroke-width="2" fill="none"/>
<line x1="38" y1="88.0" x2="38" y2="30.0" stroke="#000000" stroke-width="2" />
<line x1="113.0" y1="88.0" x2="113.0" y2="30.0" stroke="#000000" stroke-width="2" />
<line x1="11" y1="21.0" x2="25.0" y2="21.0" stroke="#000000" stroke-width="2" marker-end="url(#arrow)" />
<circle cx="142.0" cy="21.0" r="3.0" stroke="#000000" stroke-width="2" fill="#FFFFFF"/>
<line x1="121.0" y1="21.0" x2="135.0" y2="21.0" stroke="#000000" stroke-width="2" marker-end="url(#arrow)" />
</svg>