<?xml version="1.0" encoding="UTF-8" standalone="no"?>
<!-- Created by Syntax-Trax http://kevinpt.github.io/syntax-trax -->
<svg xmlns="http://www.w3.org/2000/svg"
xmlns:xlink="http://www.w3.org/1999/xlink"
xml:space="preserve"
width="184" height="188" version="1.1">
<style type="text/css">
<![CDATA[
.box_font {fill:#000000; text-anchor:middle;
    font-family:Times; font-size:14pt; font-weight:normal; font-style:italic;}
.bubble_font {fill:#000000; text-anchor:middle;
    font-family:Helvetica; font-size:14pt; font-weight:bold; font-style:normal;}
.title_font {fill:#000000; text-anchor:middle;
    font-family:Helvetica; font-size:22pt; font-weight:bold; font-style:normal;}
.token_font {fill:#000000; text-anchor:middle;
    font-family:Helvetica; font-size:16pt; font-weight:bold; font-style:normal;}
.label {fill:#000;
  text-anchor:middle;
  font-size:16pt; font-weight:bold; font-family:Sans;}
.link {fill: #0D47A1;}
.link:hover {fill: #0D47A1; text-decoration:underline;}
.link:visited {fill: #4A148C;}
]]>
</style>
<defs>
  <marker id="arrow" markerWidth="5" markerHeight="4" refX="2.5" refY="2" orient="auto" markerUnits="strokeWidth">
    <path d="M0,0 L0.5,2 L0,4 L4.5,2 z" fill="#000000" />
  </marker>
</defs>
<path d="M49.0,41.0 A16.0,16.0 0 0,1 49.0,9.0 H52.0 A16.0,16.0 0 0,1 52.0,41.0 z" stroke="none" fill-opacity="0.498039215686" fill="#000000"/>
<path d="M103.0,41.0 A16.0,16.0 0 0,1 103.0,9.0 H106.0 A16.0,16.0 0 0,1 106.0,41.0 z" stroke="none" fill-opacity="0.498039215686" fill="#000000"/>
<path d="M85.0,113.0 A16.0,16.0 0 0,1 85.0,81.0 H137.0 A16.0,16.0 0 0,1 137.0,113.0 z" stroke="none" fill-opacity="0.498039215686" fill="#000000"/>
<path d="M85.0,185.0 A16.0,16.0 0 0,1 85.0,153.0 H123.0 A16.0,16.0 0 0,1 123.0,185.0 z" stroke="none" fill-opacity="0.498039215686" fill="#000000"/>
<circle cx="9" cy="21.0" r="3" stroke="#000000" stroke-width="2" fill="#FFFFFF"/>
<path d="M46.0,38.0 A16.0,16.0 0 0,1 46.0,6.0 H49.0 A16.0,16.0 0 0,1 49.0,38.0 z" stroke="#000000" stroke-width="2" fill="#B3E5FC"/>
<text class="bubble_font" x="47.5" y="29.0">A</text>
<path d="M100.0,38.0 A16.0,16.0 0 0,1 100.0,6.0 H103.0 A16.0,16.0 0 0,1 103.0,38.0 z" stroke="#000000" stroke-width="2" fill="#B3E5FC"/>
<text class="bubble_font" x="101.5" y="29.0">B</text>
<line x1="65.0" y1="21.0" x2="79.0" y2="21.0" stroke="#000000" stroke-width="2" marker-end="url(#arrow)" />
<path d="M82.0,110.0 A16.0,16.0 0 0,1 82.0,78.0 H134.0 A16.0,16.0 0 0,1 134.0,110.0 z" stroke="#000000" stroke-width="2" fill="#B3E5FC"/>
<text class="bubble_font" x="108.0" y="101.0">bypass</text>
<line x1="120.0" y1="21.0" x2="138.0" y2="21.0" stroke="#000000" stroke-width="2" />
<path d="M147.0,30.0 A9.0,9.0 0 0,0 138.0,21.0" stroke="#000000" stroke-width="2" fill="none"/>
<line x1="147.0" y1="30.0" x2="147.0" y2="35.5" stroke="#000000" stroke-width="2" marker-end="url(#arrow)" />
<line x1="147.0" y1="39.5" x2="147.0" y2="49.0" stroke="#000000" stroke-width="2" />
<path d="M138.0,58.0 A9.0,9.0 0 0,0 147.0,49.0" stroke="#000000" stroke-width="2" fill="none"/>
<line x1="138.0" y1="58.0" x2="96.5" y2="58.0" stroke="#000000" stroke-width="2" marker-end="url(#arrow)" />
<line x1="92.5" y1="58.0" x2="47" y2="58.0" stroke="#000000" stroke-width="2" />
<path d="M47.0,58.0 A9,9 0 0,0 38.0,67.0" stroke="#000000" stroke-width="2" fill="none"/>
<line x1="38" y1="67.0" x2="38" y2="84.0" stroke="#000000" stroke-width="2" />
<path d="M38.0,84.0 A9,9 0 0,0 47.0,93.0" stroke="#000000" stroke-width="2" fill="none"/>
<line x1="47" y1="93.0" x2="61.0" y2="93.0" stroke="#000000" stroke-width="2" marker-end="url(#arrow)" />
<path d="M82.0,182.0 A16.0,16.0 0 0,1 82.0,150.0 H120.0 A16.0,16.0 0 0,1 120.0,182.0 z" stroke="#000000" stroke-width="2" fill="#B3E5FC"/>
<text class="bubble_font" x="101.0" y="173.0">finish</text>
<line x1="38" y1="84.0" x2="38.0" y2="107.5" stroke="#000000" stroke-width="2" marker-end="url(#arrow)" />
<line x1="38" y1="111.5" x2="38" y2="139.0" stroke="#000000" stroke-width="2" />
<line x1="151.0" y1="93.0" x2="169.0" y2="93.0" stroke="#000000" stroke-width="2" />
<path d="M178.0,102.0 A9.0,9.0 0 0,0 169.0,93.0" stroke="#000000" stroke-width="2" fill="none"/>
<line x1="178.0" y1="102.0" x2="178.0" y2="107.5" stroke="#000000" stroke-width="2" marker-end="url(#arrow)" />
<line x1="178.0" y1="111.5" x2="178.0" y2="121.0" stroke="#000000" stroke-width="2" />
<path d="M169.0,130.0 A9.0,9.0 0 0,0 178.0,121.0" stroke="#000000" stroke-width="2" fill="none"/>
<line x1="169.0" y1="130.0" x2="112.0" y2="130.0" stroke="#000000" stroke-width="2" marker-end="url(#arrow)" />
<line x1="108.0" y1="130.0" x2="47" y2="130.0" stroke="#000000" stroke-width="2" />
<path d="M47.0,130.0 A9,9 0 0,0 38.0,139.0" stroke="#000000" stroke-width="2" fill="none"/>
<line x1="38" y1="139.0" x2="38" y2="156.0" stroke="#000000" stroke-width="2" />
<path d="M38.0,156.0 A9,9 0 0,0 47.0,165.0" stroke="#000000" stroke-width="2" fill="none"/>
<line x1="47" y1="165.0" x2="61.0" y2="165.0" stroke="#000000" stroke-width="2" marker-end="url(#arrow)" />
<line x1="11" y1="21.0" x2="25.0" y2="21.0" stroke="#000000" stroke-width="2" marker-end="url(#arrow)" />
<circle cx="157.0" cy="165.0" r="3.0" stroke="#000000" stroke-width="2" fill="#FFFFFF"/>
<line x1="136.0" y1="165.0" x2="150.0" y2="165.0" stroke="#000000" stroke-width="2" marker-end="url(#arrow)" />
</svg>