<?xml version="1.0" encoding="UTF-8" standalone="no"?>
<!-- Created by Syntax-Trax http://kevinpt.github.io/syntax-trax -->
<svg xmlns="http://www.w3.org/2000/svg"
xmlns:xlink="http://www.w3.org/1999/xlink"
xml:space="preserve"
width="295" height="90" version="1.1">
<style type="text/css">
<![CDATA[
.box_font {fill:#000000; text-anchor:middle;
    font-family:Times; font-size:14pt; font-weight:normal; font-style:italic;}
.bubble_font {fill:#000000; text-anchor:middle;
    font-family:Helvetica; font-size:14pt; font-weight:bold; font-style:normal;}
.title_font {fill:#000000; text-anchor:middle;
    font-family:Helvetica; font-size:22pt; font-weight:bold; font-style:normal;}
.token_font {fill:#000000; text-anchor:middle;
    font-family:Helvetica; font-size:16pt; font-weight:bold; font-style:normal;}
.label {fill:#000;
  text-anchor:middle;
  font-size:16pt; font-weight:bold; font-family:Sans;}
.link {fill: #0D47A1;}
.link:hover {fill: #0D47A1; text-decoration:underline;}
.link:visited {fill: #4A148C;}
]]>
</style>
<defs>
  <marker id="arrow" markerWidth="5" markerHeight="4" refX="2.5" refY="2" orient="auto" markerUnits="strokeWidth">
    <path d="M0,0 L0.5,2 L0,4 L4.5,2 z" fill="#000000" />
  </marker>
</defs>
<circle cx="68.5" cy="69.0" r="18.0" stroke="none" fill-opacity="0.498039215686" fill="#000000"/>
<path d="M121.5,85.0 A16.0,16.0 0 0,1 121.5,53.0 H178.5 A16.0,16.0 0 0,1 178.5,85.0 z" stroke="none" fill-opacity="0.498039215686" fill="#000000"/>
<circle cx="231.5" cy="69.0" r="18.0" stroke="none" fill-opacity="0.498039215686" fill="#000000"/>
<circle cx="60.0" cy="27.0" r="18.0" stroke="none" fill-opacity="0.498039215686" fill="#000000"/>
<path d="M113.0,43.0 A16.0,16.0 0 0,1 113.0,11.0 H187.0 A16.0,16.0 0 0,1 187.0,43.0 z" stroke="none" fill-opacity="0.498039215686" fill="#000000"/>
<circle cx="240.0" cy="27.0" r="18.0" stroke="none" fill-opacity="0.498039215686" fill="#000000"/>
<circle cx="9" cy="65.0" r="3" stroke="#000000" stroke-width="2" fill="#FFFFFF"/>
<circle cx="65.5" cy="66.0" r="18.0" stroke="#000000" stroke-width="2" fill="#B3E5FC"/>
<text class="token_font" x="65.5" y="74.0">(</text>
<path d="M118.5,82.0 A16.0,16.0 0 0,1 118.5,50.0 H175.5 A16.0,16.0 0 0,1 175.5,82.0 z" stroke="#000000" stroke-width="2" fill="#B3E5FC"/>
<text class="bubble_font" x="147.0" y="73.0">forward</text>
<line x1="83.5" y1="65.0" x2="97.5" y2="65.0" stroke="#000000" stroke-width="2" marker-end="url(#arrow)" />
<circle cx="228.5" cy="66.0" r="18.0" stroke="#000000" stroke-width="2" fill="#B3E5FC"/>
<text class="token_font" x="228.5" y="74.0">)</text>
<line x1="191.5" y1="65.0" x2="205.5" y2="65.0" stroke="#000000" stroke-width="2" marker-end="url(#arrow)" />
<circle cx="57.0" cy="24.0" r="18.0" stroke="#000000" stroke-width="2" fill="#B3E5FC"/>
<text class="token_font" x="57.0" y="32.0">(</text>
<path d="M110.0,40.0 A16.0,16.0 0 0,1 110.0,8.0 H184.0 A16.0,16.0 0 0,1 184.0,40.0 z" stroke="#000000" stroke-width="2" fill="#B3E5FC"/>
<text class="bubble_font" x="147.0" y="31.0">backward</text>
<line x1="93.0" y1="23.0" x2="80.0" y2="23.0" stroke="#000000" stroke-width="2" marker-end="url(#arrow)" />
<circle cx="237.0" cy="24.0" r="18.0" stroke="#000000" stroke-width="2" fill="#B3E5FC"/>
<text class="token_font" x="237.0" y="32.0">)</text>
<line x1="218.0" y1="23.0" x2="205.0" y2="23.0" stroke="#000000" stroke-width="2" marker-end="url(#arrow)" />
<line x1="38" y1="65.0" x2="46.5" y2="65.0" stroke="#000000" stroke-width="2" />
<line x1="247.5" y1="65.0" x2="256.0" y2="65.0" stroke="#000000" stroke-width="2" />
<line x1="29" y1="65.0" x2="38" y2="65.0" stroke="#000000" stroke-width="2" />
<path d="M38.0,23.0 A9,9 0 0,0 29.0,32.0" stroke="#000000" stroke-width="2" fill="none"/>
<line x1="29" y1="32.0" x2="29.0" y2="40.0" stroke="#000000" stroke-width="2" marker-end="url(#arrow)" />
<line x1="29" y1="44.0" x2="29" y2="56.0" stroke="#000000" stroke-width="2" />
<path d="M29.0,56.0 A9,9 0 0,0 38.0,65.0" stroke="#000000" stroke-width="2" fill="none"/>
<path d="M265.0,32.0 A9.0,9.0 0 0,0 256.0,23.0" stroke="#000000" stroke-width="2" fill="none"/>
<line x1="265.0" y1="56.0" x2="265.0" y2="48.0" stroke="#000000" stroke-width="2" marker-end="url(#arrow)" />
<line x1="265.0" y1="44.0" x2="265.0" y2="32.0" stroke="#000000" stroke-width="2" />
<path d="M256.0,65.0 A9.0,9.0 0 0,0 265.0,56.0" stroke="#000000" stroke-width="2" fill="none"/>
<line x1="256.0" y1="65.0" x2="266.0" y2="65.0" stroke="#000000" stroke-width="2" />
<line x1="11" y1="65.0" x2="25.0" y2="65.0" stroke="#000000" stroke-width="2" marker-end="url(#arrow)" />
<circle cx="286.0" cy="65.0" r="3.0" stroke="#000000" stroke-width="2" fill="#FFFFFF"/>
<line x1="265.0" y1="65.0" x2="279.0" y2="65.0" stroke="#000000" stroke-width="2" marker-end="url(#arrow)" />
</svg>