<?xml version="1.0" encoding="UTF-8" standalone="no"?>
<!-- Created by Syntax-Trax http://kevinpt.github.io/syntax-trax -->
<svg xmlns="http://www.w3.org/2000/svg"
xmlns:xlink="http://www.w3.org/1999/xlink"
xml:space="preserve"
width="433" height="306" version="1.1">
<style type="text/css">
<![CDATA[
.box_font {fill:#000000; text-anchor:middle;
    font-family:Helvetica; font-size:14pt; font-weight:normal; font-style:normal;}
.bubble_font {fill:#000000; text-anchor:middle;
    font-family:Helvetica; font-size:14pt; font-weight:bold; font-style:normal;}
.title_font {fill:#000000; text-anchor:middle;
    font-family:Helvetica; font-size:24pt; font-weight:bold; font-style:normal;}
.token_font {fill:#000000; text-anchor:middle;
    font-family:Times; font-size:16pt; font-weight:normal; font-style:italic;}
.label {fill:#000;
  text-anchor:middle;
  font-size:16pt; font-weight:bold; font-family:Sans;}
.link {fill: #0D47A1;}
.link:hover {fill: #0D47A1; text-decoration:underline;}
.link:visited {fill: #4A148C;}
]]>
</style>
<defs>
  <marker id="arrow" markerWidth="5" markerHeight="4" refX="2.5" refY="2" orient="auto" markerUnits="strokeWidth">
    <path d="M0,0 L0.5,2 L0,4 L4.5,2 z" fill="#000000" />
  </marker>
</defs>
<rect width="100%" height="100%" fill="white"/><path d="M52.0,42.0 A16.0,16.0 0 0,1 52.0,10.0 H114.0 A16.0,16.0 0 0,1 114.0,42.0 z" stroke="none" fill-opacity="0.498039215686" fill="#320000"/>
<rect x="149.0" y="10.0" width="162.0" height="32.0" stroke="none" fill-opacity="0.498039215686" fill="#320000"/>
<path d="M346.0,42.0 A16.0,16.0 0 0,1 346.0,10.0 H353.0 A16.0,16.0 0 0,1 353.0,42.0 z" stroke="none" fill-opacity="0.498039215686" fill="#320000"/>
<rect x="99.0" y="122.0" width="149.0" height="32.0" stroke="none" fill-opacity="0.498039215686" fill="#320000"/>
<circle cx="173.5" cy="99.0" r="17.0" stroke="none" fill-opacity="0.498039215686" fill="#320000"/>
<path d="M116.0,192.0 A16.0,16.0 0 0,1 116.0,160.0 H161.0 A16.0,16.0 0 0,1 161.0,192.0 z" stroke="none" fill-opacity="0.498039215686" fill="#320000"/>
<path d="M116.0,230.0 A16.0,16.0 0 0,1 116.0,198.0 H126.0 A16.0,16.0 0 0,1 126.0,230.0 z" stroke="none" fill-opacity="0.498039215686" fill="#320000"/>
<circle cx="314.0" cy="138.0" r="17.0" stroke="none" fill-opacity="0.498039215686" fill="#320000"/>
<rect x="72.0" y="271.0" width="106.0" height="32.0" stroke="none" fill-opacity="0.498039215686" fill="#320000"/>
<path d="M213.0,303.0 A16.0,16.0 0 0,1 213.0,271.0 H218.0 A16.0,16.0 0 0,1 218.0,303.0 z" stroke="none" fill-opacity="0.498039215686" fill="#320000"/>
<rect x="253.0" y="271.0" width="99.0" height="32.0" stroke="none" fill-opacity="0.498039215686" fill="#320000"/>
<circle cx="388.0" cy="287.0" r="17.0" stroke="none" fill-opacity="0.498039215686" fill="#320000"/>
<circle cx="10" cy="21.0" r="4" stroke="#000000" stroke-width="3" fill="#FFFFFF"/>
<path d="M48.0,38.0 A16.0,16.0 0 0,1 48.0,6.0 H110.0 A16.0,16.0 0 0,1 110.0,38.0 z" fill-opacity="0.498039215686" stroke="#000000" stroke-width="3" fill="#FF0000"/>
<text class="bubble_font" x="79.0" y="29.0">attribute</text>
<rect x="145.0" y="6.0" width="162.0" height="32.0" stroke="#000000" stroke-width="3" fill="#6E96FA"/>
<text class="box_font" x="226.0" y="29.5">(attribute) identifier</text>
<line x1="126.0" y1="21.0" x2="144.0" y2="21.0" stroke="#000000" stroke-width="3" fill="#fff" />
<path d="M342.0,38.0 A16.0,16.0 0 0,1 342.0,6.0 H349.0 A16.0,16.0 0 0,1 349.0,38.0 z" fill-opacity="0.498039215686" stroke="#000000" stroke-width="3" fill="#FF0000"/>
<text class="bubble_font" x="345.5" y="29.0">of</text>
<line x1="307.0" y1="21.0" x2="325.0" y2="21.0" stroke="#000000" stroke-width="3" fill="#fff" />
<rect x="95.0" y="118.0" width="149.0" height="32.0" stroke="#000000" stroke-width="3" fill="#6E96FA"/>
<text class="box_font" x="169.5" y="141.5">entity_designator</text>
<circle cx="169.5" cy="95.0" r="17.0" fill-opacity="0.498039215686" stroke="#000000" stroke-width="3" fill="#FF0000"/>
<text class="token_font" x="169.5" y="102.5">,</text>
<line x1="94.0" y1="94.0" x2="151.5" y2="94.0" stroke="#000000" stroke-width="3" fill="#fff" />
<line x1="187.5" y1="94.0" x2="245.0" y2="94.0" stroke="#000000" stroke-width="3" fill="#fff" />
<line x1="85.0" y1="133.0" x2="94.0" y2="133.0" stroke="#000000" stroke-width="3" fill="#fff" />
<path d="M94.0,94.0 A9.0,9.0 0 0,0 85.0,103.0" stroke="#000000" stroke-width="3" fill="none"/>
<line x1="85.0" y1="103.0" x2="85.0" y2="113.5" stroke="#000000" stroke-width="3" fill="#fff" />
<line x1="85.0" y1="113.5" x2="85.0" y2="124.0" stroke="#000000" stroke-width="3" fill="#fff" />
<path d="M85.0,124.0 A9.0,9.0 0 0,0 94.0,133.0" stroke="#000000" stroke-width="3" fill="none"/>
<path d="M254.0,103.0 A9.0,9.0 0 0,0 245.0,94.0" stroke="#000000" stroke-width="3" fill="none"/>
<line x1="254.0" y1="124.0" x2="254.0" y2="113.5" stroke="#000000" stroke-width="3" fill="#fff" />
<line x1="254.0" y1="113.5" x2="254.0" y2="103.0" stroke="#000000" stroke-width="3" fill="#fff" />
<path d="M245.0,133.0 A9.0,9.0 0 0,0 254.0,124.0" stroke="#000000" stroke-width="3" fill="none"/>
<line x1="245.0" y1="133.0" x2="255.0" y2="133.0" stroke="#000000" stroke-width="3" fill="#fff" />
<path d="M112.0,188.0 A16.0,16.0 0 0,1 112.0,156.0 H157.0 A16.0,16.0 0 0,1 157.0,188.0 z" fill-opacity="0.498039215686" stroke="#000000" stroke-width="3" fill="#FF0000"/>
<text class="bubble_font" x="134.5" y="179.0">others</text>
<path d="M112.0,226.0 A16.0,16.0 0 0,1 112.0,194.0 H122.0 A16.0,16.0 0 0,1 122.0,226.0 z" fill-opacity="0.498039215686" stroke="#000000" stroke-width="3" fill="#FF0000"/>
<text class="bubble_font" x="117.0" y="217.0">all</text>
<line x1="67" y1="133.0" x2="85.0" y2="133.0" stroke="#000000" stroke-width="3" fill="#fff" />
<line x1="255.0" y1="133.0" x2="276.0" y2="133.0" stroke="#000000" stroke-width="3" fill="#fff" />
<path d="M76.0,142.0 A9,9 0 0,0 67.0,133.0" stroke="#000000" stroke-width="3" fill="none"/>
<line x1="85" y1="171.0" x2="95" y2="171.0" stroke="#000000" stroke-width="3" fill="#fff" />
<line x1="174.0" y1="171.0" x2="257.0" y2="171.0" stroke="#000000" stroke-width="3" fill="#fff" />
<path d="M76.0,162.0 A9,9 0 0,0 85.0,171.0" stroke="#000000" stroke-width="3" fill="none"/>
<path d="M257.0,171.0 A9.0,9.0 0 0,0 266.0,162.0" stroke="#000000" stroke-width="3" fill="none"/>
<line x1="85" y1="209.0" x2="95" y2="209.0" stroke="#000000" stroke-width="3" fill="#fff" />
<line x1="139.0" y1="209.0" x2="257.0" y2="209.0" stroke="#000000" stroke-width="3" fill="#fff" />
<path d="M76.0,200.0 A9,9 0 0,0 85.0,209.0" stroke="#000000" stroke-width="3" fill="none"/>
<path d="M257.0,209.0 A9.0,9.0 0 0,0 266.0,200.0" stroke="#000000" stroke-width="3" fill="none"/>
<path d="M275.0,133.0 A9.0,9.0 0 0,0 266.0,142.0" stroke="#000000" stroke-width="3" fill="none"/>
<line x1="76" y1="200.0" x2="76" y2="142.0" stroke="#000000" stroke-width="3" fill="#fff" />
<line x1="266.0" y1="200.0" x2="266.0" y2="142.0" stroke="#000000" stroke-width="3" fill="#fff" />
<circle cx="310.0" cy="134.0" r="17.0" fill-opacity="0.498039215686" stroke="#000000" stroke-width="3" fill="#FF0000"/>
<text class="token_font" x="310.0" y="141.5">:</text>
<line x1="274.0" y1="133.0" x2="292.0" y2="133.0" stroke="#000000" stroke-width="3" fill="#fff" />
<line x1="366.0" y1="21.0" x2="384.0" y2="21.0" stroke="#000000" stroke-width="3" fill="#fff" />
<path d="M393.0,30.0 A9.0,9.0 0 0,0 384.0,21.0" stroke="#000000" stroke-width="3" fill="none"/>
<line x1="393.0" y1="30.0" x2="393.0" y2="39.5" stroke="#000000" stroke-width="3" fill="#fff" />
<line x1="393.0" y1="39.5" x2="393.0" y2="49.0" stroke="#000000" stroke-width="3" fill="#fff" />
<path d="M384.0,58.0 A9.0,9.0 0 0,0 393.0,49.0" stroke="#000000" stroke-width="3" fill="none"/>
<line x1="384.0" y1="58.0" x2="216.5" y2="58.0" stroke="#000000" stroke-width="3" fill="#fff" />
<line x1="216.5" y1="58.0" x2="49" y2="58.0" stroke="#000000" stroke-width="3" fill="#fff" />
<path d="M49.0,58.0 A9,9 0 0,0 40.0,67.0" stroke="#000000" stroke-width="3" fill="none"/>
<line x1="40" y1="67.0" x2="40" y2="95.5" stroke="#000000" stroke-width="3" fill="#fff" />
<line x1="40" y1="95.5" x2="40" y2="124.0" stroke="#000000" stroke-width="3" fill="#fff" />
<path d="M40.0,124.0 A9,9 0 0,0 49.0,133.0" stroke="#000000" stroke-width="3" fill="none"/>
<line x1="49" y1="133.0" x2="67" y2="133.0" stroke="#000000" stroke-width="3" fill="#fff" />
<rect x="68.0" y="267.0" width="106.0" height="32.0" stroke="#000000" stroke-width="3" fill="#6E96FA"/>
<text class="box_font" x="121.0" y="290.5">entity_class</text>
<path d="M209.0,299.0 A16.0,16.0 0 0,1 209.0,267.0 H214.0 A16.0,16.0 0 0,1 214.0,299.0 z" fill-opacity="0.498039215686" stroke="#000000" stroke-width="3" fill="#FF0000"/>
<text class="bubble_font" x="211.5" y="290.0">is</text>
<line x1="174.0" y1="282.0" x2="192.0" y2="282.0" stroke="#000000" stroke-width="3" fill="#fff" />
<rect x="249.0" y="267.0" width="99.0" height="32.0" stroke="#000000" stroke-width="3" fill="#6E96FA"/>
<text class="box_font" x="298.5" y="290.5">expression</text>
<line x1="230.0" y1="282.0" x2="248.0" y2="282.0" stroke="#000000" stroke-width="3" fill="#fff" />
<circle cx="384.0" cy="283.0" r="17.0" fill-opacity="0.498039215686" stroke="#000000" stroke-width="3" fill="#FF0000"/>
<text class="token_font" x="384.0" y="290.5">;</text>
<line x1="348.0" y1="282.0" x2="366.0" y2="282.0" stroke="#000000" stroke-width="3" fill="#fff" />
<line x1="328.0" y1="133.0" x2="346.0" y2="133.0" stroke="#000000" stroke-width="3" fill="#fff" />
<path d="M355.0,142.0 A9.0,9.0 0 0,0 346.0,133.0" stroke="#000000" stroke-width="3" fill="none"/>
<line x1="355.0" y1="142.0" x2="355.0" y2="189.5" stroke="#000000" stroke-width="3" fill="#fff" />
<line x1="355.0" y1="189.5" x2="355.0" y2="237.0" stroke="#000000" stroke-width="3" fill="#fff" />
<path d="M346.0,246.0 A9.0,9.0 0 0,0 355.0,237.0" stroke="#000000" stroke-width="3" fill="none"/>
<line x1="346.0" y1="246.0" x2="197.5" y2="246.0" stroke="#000000" stroke-width="3" fill="#fff" />
<line x1="197.5" y1="246.0" x2="49" y2="246.0" stroke="#000000" stroke-width="3" fill="#fff" />
<path d="M49.0,246.0 A9,9 0 0,0 40.0,255.0" stroke="#000000" stroke-width="3" fill="none"/>
<line x1="40" y1="255.0" x2="40" y2="273.0" stroke="#000000" stroke-width="3" fill="#fff" />
<path d="M40.0,273.0 A9,9 0 0,0 49.0,282.0" stroke="#000000" stroke-width="3" fill="none"/>
<line x1="49" y1="282.0" x2="67" y2="282.0" stroke="#000000" stroke-width="3" fill="#fff" />
<line x1="13" y1="21.0" x2="31" y2="21.0" stroke="#000000" stroke-width="3" fill="#fff" />
<circle cx="423.0" cy="282.0" r="4.0" stroke="#000000" stroke-width="3" fill="#FFFFFF"/>
<line x1="401.0" y1="282.0" x2="419.0" y2="282.0" stroke="#000000" stroke-width="3" fill="#fff" />
</svg>