<?xml version="1.0" encoding="UTF-8" standalone="no"?>
<!-- Created by Syntax-Trax http://kevinpt.github.io/syntax-trax -->
<svg xmlns="http://www.w3.org/2000/svg"
xmlns:xlink="http://www.w3.org/1999/xlink"
xml:space="preserve"
width="450" height="306" version="1.1">
<style type="text/css">
<![CDATA[
.box_font {fill:#646464; text-anchor:middle;
    font-family:Helvetica; font-size:14pt; font-weight:bold; font-style:normal;}
.title_font {fill:#000000; text-anchor:middle;
    font-family:Helvetica; font-size:22pt; font-weight:bold; font-style:normal;}
.bubble_font {fill:#000000; text-anchor:middle;
    font-family:Helvetica; font-size:14pt; font-weight:bold; font-style:normal;}
.token_font {fill:#000000; text-anchor:middle;
    font-family:Times; font-size:16pt; font-weight:normal; font-style:italic;}
.label {fill:#000;
  text-anchor:middle;
  font-size:16pt; font-weight:bold; font-family:Sans;}
.link {fill: #0D47A1;}
.link:hover {fill: #0D47A1; text-decoration:underline;}
.link:visited {fill: #4A148C;}
]]>
</style>
<defs>
  <marker id="arrow" markerWidth="5" markerHeight="4" refX="2.5" refY="2" orient="auto" markerUnits="strokeWidth">
    <path d="M0,0 L0.5,2 L0,4 L4.5,2 z" fill="#000000" />
  </marker>
</defs>
<rect width="100%" height="100%" fill="white"/><path d="M44.0,42.0 H122.0 L130.0,26.0 L122.0,10.0 H44.0 L36.0,26.0 z" stroke="none" fill-opacity="0.498039215686" fill="#000000"/>
<rect x="149.0" y="10.0" width="177.0" height="32.0" stroke="none" fill-opacity="0.498039215686" fill="#000000"/>
<path d="M353.0,42.0 H376.0 L384.0,26.0 L376.0,10.0 H353.0 L345.0,26.0 z" stroke="none" fill-opacity="0.498039215686" fill="#000000"/>
<rect x="99.0" y="122.0" width="162.0" height="32.0" stroke="none" fill-opacity="0.498039215686" fill="#000000"/>
<circle cx="180.0" cy="99.0" r="17.0" stroke="none" fill-opacity="0.498039215686" fill="#000000"/>
<path d="M108.0,192.0 H169.0 L177.0,176.0 L169.0,160.0 H108.0 L100.0,176.0 z" stroke="none" fill-opacity="0.498039215686" fill="#000000"/>
<path d="M108.0,230.0 H134.0 L142.0,214.0 L134.0,198.0 H108.0 L100.0,214.0 z" stroke="none" fill-opacity="0.498039215686" fill="#000000"/>
<circle cx="348.0" cy="138.0" r="17.0" stroke="none" fill-opacity="0.498039215686" fill="#000000"/>
<rect x="72.0" y="271.0" width="115.0" height="32.0" stroke="none" fill-opacity="0.498039215686" fill="#000000"/>
<path d="M214.0,303.0 H235.0 L243.0,287.0 L235.0,271.0 H214.0 L206.0,287.0 z" stroke="none" fill-opacity="0.498039215686" fill="#000000"/>
<rect x="262.0" y="271.0" width="107.0" height="32.0" stroke="none" fill-opacity="0.498039215686" fill="#000000"/>
<circle cx="405.0" cy="287.0" r="17.0" stroke="none" fill-opacity="0.498039215686" fill="#000000"/>
<circle cx="10" cy="21.0" r="4" stroke="#000000" stroke-width="3" fill="#FFFF00"/>
<path d="M40.0,38.0 H118.0 L126.0,22.0 L118.0,6.0 H40.0 L32.0,22.0 z" fill-opacity="0.498039215686" stroke="#000000" stroke-width="3" fill="#FF0000"/>
<text class="bubble_font" x="79.0" y="29.0">attribute</text>
<rect x="145.0" y="6.0" width="177.0" height="32.0" stroke="#000000" stroke-width="3" fill="#88AAEE"/>
<text class="box_font" x="233.5" y="29.0">(attribute) identifier</text>
<line x1="126.0" y1="21.0" x2="144.0" y2="21.0" stroke="#000000" stroke-width="3" />
<path d="M349.0,38.0 H372.0 L380.0,22.0 L372.0,6.0 H349.0 L341.0,22.0 z" fill-opacity="0.498039215686" stroke="#000000" stroke-width="3" fill="#FF0000"/>
<text class="bubble_font" x="360.5" y="29.0">of</text>
<line x1="322.0" y1="21.0" x2="340.0" y2="21.0" stroke="#000000" stroke-width="3" />
<rect x="95.0" y="118.0" width="162.0" height="32.0" stroke="#000000" stroke-width="3" fill="#88AAEE"/>
<text class="box_font" x="176.0" y="141.0">entity_designator</text>
<circle cx="176.0" cy="95.0" r="17.0" stroke="#000000" stroke-width="3" fill="#FFA500"/>
<text class="token_font" x="176.0" y="102.5">,</text>
<line x1="94.0" y1="94.0" x2="158.0" y2="94.0" stroke="#000000" stroke-width="3" />
<line x1="194.0" y1="94.0" x2="258.0" y2="94.0" stroke="#000000" stroke-width="3" />
<line x1="85.0" y1="133.0" x2="94.0" y2="133.0" stroke="#000000" stroke-width="3" />
<path d="M94.0,94.0 A19.5,19.5 0 0,0 94.0,133.0" stroke="#000000" stroke-width="3" fill="none"/>
<path d="M258.0,133.0 A19.5,19.5 0 0,0 258.0,94.0" stroke="#000000" stroke-width="3" fill="none"/>
<line x1="258.0" y1="133.0" x2="278.5" y2="133.0" stroke="#000000" stroke-width="3" />
<path d="M104.0,188.0 H165.0 L173.0,172.0 L165.0,156.0 H104.0 L96.0,172.0 z" fill-opacity="0.498039215686" stroke="#000000" stroke-width="3" fill="#FF0000"/>
<text class="bubble_font" x="134.5" y="179.0">others</text>
<path d="M104.0,226.0 H130.0 L138.0,210.0 L130.0,194.0 H104.0 L96.0,210.0 z" fill-opacity="0.498039215686" stroke="#000000" stroke-width="3" fill="#FF0000"/>
<text class="bubble_font" x="117.0" y="217.0">all</text>
<line x1="67" y1="133.0" x2="85.0" y2="133.0" stroke="#000000" stroke-width="3" />
<line x1="278.5" y1="133.0" x2="310.0" y2="133.0" stroke="#000000" stroke-width="3" />
<path d="M76.0,142.0 A9,9 0 0,0 67.0,133.0" stroke="#000000" stroke-width="3" fill="none"/>
<line x1="85" y1="171.0" x2="95" y2="171.0" stroke="#000000" stroke-width="3" />
<line x1="174.0" y1="171.0" x2="291.0" y2="171.0" stroke="#000000" stroke-width="3" />
<path d="M76.0,162.0 A9,9 0 0,0 85.0,171.0" stroke="#000000" stroke-width="3" fill="none"/>
<path d="M291.0,171.0 A9.0,9.0 0 0,0 300.0,162.0" stroke="#000000" stroke-width="3" fill="none"/>
<line x1="85" y1="209.0" x2="95" y2="209.0" stroke="#000000" stroke-width="3" />
<line x1="139.0" y1="209.0" x2="291.0" y2="209.0" stroke="#000000" stroke-width="3" />
<path d="M76.0,200.0 A9,9 0 0,0 85.0,209.0" stroke="#000000" stroke-width="3" fill="none"/>
<path d="M291.0,209.0 A9.0,9.0 0 0,0 300.0,200.0" stroke="#000000" stroke-width="3" fill="none"/>
<path d="M309.0,133.0 A9.0,9.0 0 0,0 300.0,142.0" stroke="#000000" stroke-width="3" fill="none"/>
<line x1="76" y1="200.0" x2="76" y2="142.0" stroke="#000000" stroke-width="3" />
<line x1="300.0" y1="200.0" x2="300.0" y2="142.0" stroke="#000000" stroke-width="3" />
<circle cx="344.0" cy="134.0" r="17.0" stroke="#000000" stroke-width="3" fill="#FFA500"/>
<text class="token_font" x="344.0" y="141.5">:</text>
<line x1="308.0" y1="133.0" x2="326.0" y2="133.0" stroke="#000000" stroke-width="3" />
<line x1="381.0" y1="21.0" x2="399.0" y2="21.0" stroke="#000000" stroke-width="3" />
<path d="M399.0,58.0 A18.5,18.5 0 0,0 399.0,21.0" stroke="#000000" stroke-width="3" fill="none"/>
<line x1="399.0" y1="58.0" x2="224.0" y2="58.0" stroke="#000000" stroke-width="3" />
<line x1="224.0" y1="58.0" x2="49" y2="58.0" stroke="#000000" stroke-width="3" />
<path d="M49.0,58.0 A37.5,37.5 0 0,0 49.0,133.0" stroke="#000000" stroke-width="3" fill="none"/>
<line x1="49" y1="133.0" x2="67" y2="133.0" stroke="#000000" stroke-width="3" />
<rect x="68.0" y="267.0" width="115.0" height="32.0" stroke="#000000" stroke-width="3" fill="#88AAEE"/>
<text class="box_font" x="125.5" y="290.0">entity_class</text>
<path d="M210.0,299.0 H231.0 L239.0,283.0 L231.0,267.0 H210.0 L202.0,283.0 z" fill-opacity="0.498039215686" stroke="#000000" stroke-width="3" fill="#FF0000"/>
<text class="bubble_font" x="220.5" y="290.0">is</text>
<line x1="183.0" y1="282.0" x2="201.0" y2="282.0" stroke="#000000" stroke-width="3" />
<rect x="258.0" y="267.0" width="107.0" height="32.0" stroke="#000000" stroke-width="3" fill="#88AAEE"/>
<text class="box_font" x="311.5" y="290.0">expression</text>
<line x1="239.0" y1="282.0" x2="257.0" y2="282.0" stroke="#000000" stroke-width="3" />
<circle cx="401.0" cy="283.0" r="17.0" stroke="#000000" stroke-width="3" fill="#FFA500"/>
<text class="token_font" x="401.0" y="290.5">;</text>
<line x1="365.0" y1="282.0" x2="383.0" y2="282.0" stroke="#000000" stroke-width="3" />
<line x1="362.0" y1="133.0" x2="380.0" y2="133.0" stroke="#000000" stroke-width="3" />
<path d="M409.0,162.0 A29.0,29.0 0 0,0 380.0,133.0" stroke="#000000" stroke-width="3" fill="none"/>
<line x1="409.0" y1="162.0" x2="409.0" y2="217.0" stroke="#000000" stroke-width="3" />
<path d="M380.0,246.0 A29.0,29.0 0 0,0 409.0,217.0" stroke="#000000" stroke-width="3" fill="none"/>
<line x1="380.0" y1="246.0" x2="214.5" y2="246.0" stroke="#000000" stroke-width="3" />
<line x1="214.5" y1="246.0" x2="49" y2="246.0" stroke="#000000" stroke-width="3" />
<path d="M49.0,246.0 A18.0,18.0 0 0,0 49.0,282.0" stroke="#000000" stroke-width="3" fill="none"/>
<line x1="49" y1="282.0" x2="67" y2="282.0" stroke="#000000" stroke-width="3" />
<line x1="13" y1="21.0" x2="31" y2="21.0" stroke="#000000" stroke-width="3" />
<circle cx="440.0" cy="282.0" r="4.0" stroke="#000000" stroke-width="3" fill="#FFFF00"/>
<line x1="418.0" y1="282.0" x2="436.0" y2="282.0" stroke="#000000" stroke-width="3" />
</svg>