<?xml version="1.0" encoding="UTF-8" standalone="no"?>
<!-- Created by Syntax-Trax http://kevinpt.github.io/syntax-trax -->
<svg xmlns="http://www.w3.org/2000/svg"
xmlns:xlink="http://www.w3.org/1999/xlink"
xml:space="preserve"
width="175" height="50" version="1.1">
<style type="text/css">
<![CDATA[
.box_font {fill:#000000; text-anchor:middle;
    font-family:Times; font-size:14pt; font-weight:normal; font-style:italic;}
.bubble_font {fill:#000000; text-anchor:middle;
    font-family:Helvetica; font-size:14pt; font-weight:bold; font-style:normal;}
.title_font {fill:#000000; text-anchor:middle;
    font-family:Helvetica; font-size:22pt; font-weight:bold; font-style:normal;}
.token_font {fill:#000000; text-anchor:middle;
    font-family:Helvetica; font-size:16pt; font-weight:bold; font-style:normal;}
.label {fill:#000;
  text-anchor:middle;
  font-size:16pt; font-weight:bold; font-family:Sans;}
.link {fill: #0D47A1;}
.link:hover {fill: #0D47A1; text-decoration:underline;}
.link:visited {fill: #4A148C;}
]]>
</style>
<defs>
  <marker id="arrow" markerWidth="5" markerHeight="4" refX="2.5" refY="2" orient="auto" markerUnits="strokeWidth">
    <path d="M0,0 L0.5,2 L0,4 L4.5,2 z" fill="#000000" />
  </marker>
</defs>
<path d="M66.0,41.0 A16.0,16.0 0 0,1 66.0,9.0 H123.0 A16.0,16.0 0 0,1 123.0,41.0 z" stroke="none" fill-opacity="0.498039215686" fill="#000000"/>
<circle cx="9" cy="21.0" r="3" stroke="#000000" stroke-width="2" fill="#FFFFFF"/>
<path d="M63.0,38.0 A16.0,16.0 0 0,1 63.0,6.0 H120.0 A16.0,16.0 0 0,1 120.0,38.0 z" stroke="#000000" stroke-width="2" fill="#B3E5FC"/>
<text class="bubble_font" x="91.5" y="29.0">forward</text>
<line x1="90.0" y1="44.0" x2="91.0" y2="44.0" stroke="#000000" stroke-width="2" />
<line x1="46" y1="44.0" x2="90.0" y2="44.0" stroke="#000000" stroke-width="2" />
<line x1="137.0" y1="44.0" x2="95.0" y2="44.0" stroke="#000000" stroke-width="2" marker-end="url(#arrow)" />
<line x1="29" y1="21.0" x2="46" y2="21.0" stroke="#000000" stroke-width="2" />
<path d="M46.0,21.0 A11.5,11.5 0 0,0 46.0,44.0" stroke="#000000" stroke-width="2" fill="none"/>
<path d="M137.0,44.0 A11.5,11.5 0 0,0 137.0,21.0" stroke="#000000" stroke-width="2" fill="none"/>
<line x1="137.0" y1="21.0" x2="146.0" y2="21.0" stroke="#000000" stroke-width="2" />
<line x1="11" y1="21.0" x2="25.0" y2="21.0" stroke="#000000" stroke-width="2" marker-end="url(#arrow)" />
<circle cx="166.0" cy="21.0" r="3.0" stroke="#000000" stroke-width="2" fill="#FFFFFF"/>
<line x1="145.0" y1="21.0" x2="159.0" y2="21.0" stroke="#000000" stroke-width="2" marker-end="url(#arrow)" />
</svg>