<?xml version="1.0" encoding="UTF-8" standalone="no"?>
<!-- Created by Syntax-Trax http://kevinpt.github.io/syntax-trax -->
<svg xmlns="http://www.w3.org/2000/svg"
xmlns:xlink="http://www.w3.org/1999/xlink"
xml:space="preserve"
width="259" height="53" version="1.1">
<style type="text/css">
<![CDATA[
.box_font {fill:#000000; text-anchor:middle;
    font-family:Times; font-size:14pt; font-weight:normal; font-style:italic;}
.bubble_font {fill:#000000; text-anchor:middle;
    font-family:Helvetica; font-size:14pt; font-weight:bold; font-style:normal;}
.title_font {fill:#000000; text-anchor:middle;
    font-family:Helvetica; font-size:22pt; font-weight:bold; font-style:normal;}
.token_font {fill:#000000; text-anchor:middle;
    font-family:Helvetica; font-size:16pt; font-weight:bold; font-style:normal;}
.label {fill:#000;
  text-anchor:middle;
  font-size:16pt; font-weight:bold; font-family:Sans;}
.link {fill: #0D47A1;}
.link:hover {fill: #0D47A1; text-decoration:underline;}
.link:visited {fill: #4A148C;}
]]>
</style>
<defs>
  <marker id="arrow" markerWidth="5" markerHeight="4" refX="2.5" refY="2" orient="auto" markerUnits="strokeWidth">
    <path d="M0,0 L0.5,2 L0,4 L4.5,2 z" fill="#000000" />
  </marker>
</defs>
<path d="M77.0,50.0 A16.0,16.0 0 0,1 77.0,18.0 H80.0 A16.0,16.0 0 0,1 80.0,50.0 z" stroke="none" fill-opacity="0.498039215686" fill="#000000"/>
<path d="M131.0,50.0 A16.0,16.0 0 0,1 131.0,18.0 H134.0 A16.0,16.0 0 0,1 134.0,50.0 z" stroke="none" fill-opacity="0.498039215686" fill="#000000"/>
<path d="M185.0,50.0 A16.0,16.0 0 0,1 185.0,18.0 H188.0 A16.0,16.0 0 0,1 188.0,50.0 z" stroke="none" fill-opacity="0.498039215686" fill="#000000"/>
<circle cx="9" cy="9" r="3" stroke="#000000" stroke-width="2" fill="#FFFFFF"/>
<line x1="128.0" y1="9" x2="129.0" y2="9" stroke="#000000" stroke-width="2" />
<path d="M74.0,47.0 A16.0,16.0 0 0,1 74.0,15.0 H77.0 A16.0,16.0 0 0,1 77.0,47.0 z" stroke="#000000" stroke-width="2" fill="#B3E5FC"/>
<text class="bubble_font" x="75.5" y="38.0">A</text>
<path d="M128.0,47.0 A16.0,16.0 0 0,1 128.0,15.0 H131.0 A16.0,16.0 0 0,1 131.0,47.0 z" stroke="#000000" stroke-width="2" fill="#B3E5FC"/>
<text class="bubble_font" x="129.5" y="38.0">B</text>
<line x1="93.0" y1="30.0" x2="107.0" y2="30.0" stroke="#000000" stroke-width="2" marker-end="url(#arrow)" />
<path d="M182.0,47.0 A16.0,16.0 0 0,1 182.0,15.0 H185.0 A16.0,16.0 0 0,1 185.0,47.0 z" stroke="#000000" stroke-width="2" fill="#B3E5FC"/>
<text class="bubble_font" x="183.5" y="38.0">C</text>
<line x1="147.0" y1="30.0" x2="161.0" y2="30.0" stroke="#000000" stroke-width="2" marker-end="url(#arrow)" />
<line x1="29" y1="9" x2="124.0" y2="9.0" stroke="#000000" stroke-width="2" marker-end="url(#arrow)" />
<line x1="129.0" y1="9" x2="231.0" y2="9" stroke="#000000" stroke-width="2" />
<path d="M38.0,18.0 A9,9 0 0,0 29.0,9.0" stroke="#000000" stroke-width="2" fill="none"/>
<line x1="47" y1="30.0" x2="53.0" y2="30.0" stroke="#000000" stroke-width="2" marker-end="url(#arrow)" />
<line x1="202.0" y1="30.0" x2="208.0" y2="30.0" stroke="#000000" stroke-width="2" marker-end="url(#arrow)" />
<path d="M38.0,21.0 A9,9 0 0,0 47.0,30.0" stroke="#000000" stroke-width="2" fill="none"/>
<path d="M212.0,30.0 A9.0,9.0 0 0,0 221.0,21.0" stroke="#000000" stroke-width="2" fill="none"/>
<path d="M230.0,9.0 A9.0,9.0 0 0,0 221.0,18.0" stroke="#000000" stroke-width="2" fill="none"/>
<line x1="38" y1="21.0" x2="38" y2="18" stroke="#000000" stroke-width="2" />
<line x1="221.0" y1="21.0" x2="221.0" y2="18" stroke="#000000" stroke-width="2" />
<line x1="11" y1="9" x2="25.0" y2="9.0" stroke="#000000" stroke-width="2" marker-end="url(#arrow)" />
<circle cx="250.0" cy="9" r="3.0" stroke="#000000" stroke-width="2" fill="#FFFFFF"/>
<line x1="229.0" y1="9" x2="243.0" y2="9.0" stroke="#000000" stroke-width="2" marker-end="url(#arrow)" />
</svg>