<?xml version="1.0" encoding="UTF-8" standalone="no"?>
<!-- Created by Syntax-Trax http://kevinpt.github.io/syntax-trax -->
<svg xmlns="http://www.w3.org/2000/svg"
xmlns:xlink="http://www.w3.org/1999/xlink"
xml:space="preserve"
width="271" height="87" version="1.1">
<style type="text/css">
<![CDATA[
.box_font {fill:#000000; text-anchor:middle;
    font-family:Times; font-size:14pt; font-weight:normal; font-style:italic;}
.bubble_font {fill:#000000; text-anchor:middle;
    font-family:Helvetica; font-size:14pt; font-weight:bold; font-style:normal;}
.title_font {fill:#000000; text-anchor:middle;
    font-family:Helvetica; font-size:22pt; font-weight:bold; font-style:normal;}
.token_font {fill:#000000; text-anchor:middle;
    font-family:Helvetica; font-size:16pt; font-weight:bold; font-style:normal;}
.label {fill:#000;
  text-anchor:middle;
  font-size:16pt; font-weight:bold; font-family:Sans;}
.link {fill: #0D47A1;}
.link:hover {fill: #0D47A1; text-decoration:underline;}
.link:visited {fill: #4A148C;}
]]>
</style>
<defs>
  <marker id="arrow" markerWidth="5" markerHeight="4" refX="2.5" refY="2" orient="auto" markerUnits="strokeWidth">
    <path d="M0,0 L0.5,2 L0,4 L4.5,2 z" fill="#000000" />
  </marker>
</defs>
<rect x="68.5" y="10.0" width="69.0" height="30.0" stroke="none" fill-opacity="0.498039215686" fill="#000000"/>
<path d="M172.5,41.0 A16.0,16.0 0 0,1 172.5,9.0 H200.5 A16.0,16.0 0 0,1 200.5,41.0 z" stroke="none" fill-opacity="0.498039215686" fill="#000000"/>
<path d="M66.0,84.0 A16.0,16.0 0 0,1 66.0,52.0 H94.0 A16.0,16.0 0 0,1 94.0,84.0 z" stroke="none" fill-opacity="0.498039215686" fill="#000000"/>
<path d="M145.0,84.0 A16.0,16.0 0 0,1 145.0,52.0 H219.0 A16.0,16.0 0 0,1 219.0,84.0 z" stroke="none" fill-opacity="0.498039215686" fill="#000000"/>
<circle cx="9" cy="21.0" r="3" stroke="#000000" stroke-width="2" fill="#FFFFFF"/>
<rect x="65.5" y="7.0" width="69.0" height="30.0" stroke="#000000" stroke-width="2" fill="#90A4AE"/>
<text class="box_font" x="100.0" y="29.0">forward</text>
<path d="M169.5,38.0 A16.0,16.0 0 0,1 169.5,6.0 H197.5 A16.0,16.0 0 0,1 197.5,38.0 z" stroke="#000000" stroke-width="2" fill="#B3E5FC"/>
<text class="bubble_font" x="183.5" y="29.0">path</text>
<line x1="134.5" y1="21.0" x2="148.5" y2="21.0" stroke="#000000" stroke-width="2" marker-end="url(#arrow)" />
<path d="M63.0,81.0 A16.0,16.0 0 0,1 63.0,49.0 H91.0 A16.0,16.0 0 0,1 91.0,81.0 z" stroke="#000000" stroke-width="2" fill="#B3E5FC"/>
<text class="bubble_font" x="77.0" y="72.0">path</text>
<path d="M142.0,81.0 A16.0,16.0 0 0,1 142.0,49.0 H216.0 A16.0,16.0 0 0,1 216.0,81.0 z" stroke="#000000" stroke-width="2" fill="#B3E5FC"/>
<text class="bubble_font" x="179.0" y="72.0">backward</text>
<line x1="125.0" y1="64.0" x2="112.0" y2="64.0" stroke="#000000" stroke-width="2" marker-end="url(#arrow)" />
<line x1="46" y1="21.0" x2="60.5" y2="21.0" stroke="#000000" stroke-width="2" marker-end="url(#arrow)" />
<line x1="214.5" y1="21.0" x2="233.0" y2="21.0" stroke="#000000" stroke-width="2" />
<line x1="29" y1="21.0" x2="46" y2="21.0" stroke="#000000" stroke-width="2" />
<path d="M46.0,21.0 A9,9 0 0,0 37.0,30.0" stroke="#000000" stroke-width="2" fill="none"/>
<line x1="37" y1="55.0" x2="37.0" y2="46.5" stroke="#000000" stroke-width="2" marker-end="url(#arrow)" />
<line x1="37" y1="42.5" x2="37" y2="30.0" stroke="#000000" stroke-width="2" />
<path d="M37.0,55.0 A9,9 0 0,0 46.0,64.0" stroke="#000000" stroke-width="2" fill="none"/>
<path d="M242.0,30.0 A9.0,9.0 0 0,0 233.0,21.0" stroke="#000000" stroke-width="2" fill="none"/>
<line x1="242.0" y1="30.0" x2="242.0" y2="38.5" stroke="#000000" stroke-width="2" marker-end="url(#arrow)" />
<line x1="242.0" y1="42.5" x2="242.0" y2="55.0" stroke="#000000" stroke-width="2" />
<path d="M233.0,64.0 A9.0,9.0 0 0,0 242.0,55.0" stroke="#000000" stroke-width="2" fill="none"/>
<line x1="233.0" y1="21.0" x2="242.0" y2="21.0" stroke="#000000" stroke-width="2" />
<line x1="11" y1="21.0" x2="25.0" y2="21.0" stroke="#000000" stroke-width="2" marker-end="url(#arrow)" />
<circle cx="262.0" cy="21.0" r="3.0" stroke="#000000" stroke-width="2" fill="#FFFFFF"/>
<line x1="241.0" y1="21.0" x2="255.0" y2="21.0" stroke="#000000" stroke-width="2" marker-end="url(#arrow)" />
</svg>